<svg width="76" height="76" viewBox="0 0 76 76" fill="none" xmlns="http://www.w3.org/2000/svg">
<circle cx="38" cy="38" r="33.5" fill="#B6B6B6" stroke="#9F9F9F" stroke-width="9"/>
<path d="M32.125 48C31.5406 48 31.0402 47.7947 30.6237 47.384C30.2072 46.9733 29.9993 46.4803 30 45.9048V35.4286C30 34.8524 30.2083 34.359 30.6248 33.9483C31.0413 33.5376 31.5413 33.3326 32.125 33.3333H33.1875V31.2381C33.1875 29.7889 33.7056 28.5534 34.7419 27.5316C35.7782 26.5098 37.0309 25.9993 38.5 26C39.9698 26 41.2228 26.5109 42.2591 27.5327C43.2954 28.5544 43.8132 29.7896 43.8125 31.2381V33.3333H44.875C45.4594 33.3333 45.9598 33.5387 46.3763 33.9493C46.7928 34.36 47.0007 34.8531 47 35.4286V45.9048C47 46.481 46.7917 46.9744 46.3752 47.385C45.9587 47.7957 45.4587 48.0007 44.875 48H32.125ZM38.5 42.7619C39.0844 42.7619 39.5848 42.5566 40.0013 42.1459C40.4178 41.7352 40.6257 41.2422 40.625 40.6667C40.625 40.0905 40.4167 39.597 40.0002 39.1864C39.5837 38.7757 39.0837 38.5707 38.5 38.5714C37.9156 38.5714 37.4152 38.7768 36.9987 39.1874C36.5822 39.5981 36.3743 40.0912 36.375 40.6667C36.375 41.2429 36.5833 41.7363 36.9998 42.147C37.4163 42.5576 37.9163 42.7626 38.5 42.7619ZM35.3125 33.3333H41.6875V31.2381C41.6875 30.3651 41.3776 29.623 40.7578 29.0119C40.138 28.4008 39.3854 28.0952 38.5 28.0952C37.6146 28.0952 36.862 28.4008 36.2422 29.0119C35.6224 29.623 35.3125 30.3651 35.3125 31.2381V33.3333Z" fill="#9C9C9C"/>
</svg>
